<svg width="400" height="103" viewBox="0 0 400 103" fill="none" xmlns="http://www.w3.org/2000/svg">
<g clip-path="url(#clip0_167_32593)">
<path d="M124.734 97.0384C124.042 96.3325 123.696 95.4736 123.696 94.4853V51.1885L118.619 53.3887C117.823 53.7181 117.084 53.8828 116.392 53.8828C115.377 53.8828 114.523 53.5534 113.854 52.8945C113.185 52.2357 112.85 51.3768 112.85 50.3414C112.85 49.5414 113.035 48.8472 113.404 48.2472C113.773 47.6589 114.35 47.2118 115.146 46.9412L126.003 42.9645C126.557 42.7763 126.995 42.6821 127.33 42.6821C128.345 42.6821 129.187 43.0233 129.834 43.7175C130.48 44.3999 130.803 45.2941 130.803 46.3765V94.4971C130.803 95.4854 130.457 96.3443 129.753 97.0502C129.061 97.7561 128.195 98.1091 127.18 98.1091C126.245 98.1091 125.438 97.7561 124.745 97.0502L124.734 97.0384Z" fill="black"/>
<path d="M171.023 69.1424L155.228 95.9676C154.386 97.2971 153.324 97.956 152.021 97.956C150.959 97.956 150.071 97.603 149.378 96.8971C148.686 96.1912 148.34 95.3323 148.34 94.344C148.34 93.6381 148.525 92.991 148.894 92.4262L158.424 76.3193H157.236C154.074 76.3193 151.259 75.6016 148.778 74.1545C146.298 72.7074 144.36 70.7072 142.963 68.1541C141.567 65.601 140.875 62.695 140.875 59.4242C140.875 56.1534 141.567 53.3179 142.963 50.7648C144.36 48.2117 146.286 46.2116 148.778 44.7644C151.259 43.3173 154.074 42.5996 157.236 42.5996C160.397 42.5996 163.281 43.3173 165.762 44.7644C168.243 46.2116 170.181 48.2117 171.577 50.7648C172.973 53.3179 173.665 56.2004 173.665 59.4242C173.665 63.0715 172.777 66.307 171.023 69.1424ZM150.278 66.9776C152.09 68.9424 154.432 69.9189 157.305 69.9189C160.178 69.9189 162.451 68.9424 164.262 66.9776C166.073 65.0128 166.973 62.495 166.973 59.4242C166.973 56.3534 166.085 53.8474 164.297 51.9061C162.508 49.9648 160.178 48.9882 157.305 48.9882C154.432 48.9882 152.078 49.9648 150.278 51.9061C148.478 53.8474 147.567 56.3534 147.567 59.4242C147.567 62.495 148.467 65.0245 150.278 66.9776Z" fill="#E91D6D"/>
<path d="M197.433 69.1424L181.638 95.9676C180.796 97.2971 179.734 97.956 178.43 97.956C177.369 97.956 176.48 97.603 175.788 96.8971C175.096 96.1912 174.75 95.3323 174.75 94.344C174.75 93.6381 174.934 92.991 175.304 92.4262L184.834 76.3193H183.645C180.484 76.3193 177.669 75.6016 175.188 74.1545C172.708 72.7074 170.769 70.7072 169.373 68.1541C167.977 65.601 167.285 62.695 167.285 59.4242C167.285 56.1534 167.977 53.3179 169.373 50.7648C170.769 48.2117 172.696 46.2116 175.188 44.7644C177.68 43.3173 180.484 42.5996 183.645 42.5996C186.807 42.5996 189.691 43.3173 192.172 44.7644C194.652 46.2116 196.591 48.2117 197.987 50.7648C199.383 53.3179 200.075 56.2004 200.075 59.4242C200.075 63.0715 199.187 66.307 197.433 69.1424ZM176.688 66.9776C178.5 68.9424 180.842 69.9189 183.715 69.9189C186.587 69.9189 188.86 68.9424 190.672 66.9776C192.483 65.0128 193.383 62.495 193.383 59.4242C193.383 56.3534 192.495 53.8474 190.706 51.9061C188.918 49.9648 186.587 48.9882 183.715 48.9882C180.842 48.9882 178.488 49.9648 176.688 51.9061C174.877 53.8474 173.977 56.3534 173.977 59.4242C173.977 62.495 174.877 65.0245 176.688 66.9776Z" fill="#E91D6D"/>
<path d="M229.208 91.9909C229.785 92.6497 230.073 93.5086 230.073 94.544C230.073 95.5793 229.692 96.4382 228.919 97.0971C228.158 97.7559 227.166 98.0854 225.966 98.0854H224.708C222.435 98.0854 220.358 97.4853 218.478 96.2735C216.597 95.0616 215.12 93.4262 214.059 91.3438C212.997 89.2613 212.455 86.92 212.455 84.3198V66.7893H209.247C208.278 66.7893 207.482 66.5069 206.882 65.9422C206.282 65.3774 205.982 64.6598 205.982 63.8126C205.982 62.8596 206.282 62.1067 206.882 61.5419C207.482 60.9772 208.278 60.683 209.247 60.683H212.455V50.4589C212.455 49.4235 212.778 48.5646 213.424 47.9058C214.07 47.2469 214.912 46.9175 215.928 46.9175C216.943 46.9175 217.785 47.2469 218.431 47.9058C219.078 48.5764 219.401 49.4235 219.401 50.4589V60.683H225.319C226.289 60.683 227.085 60.9654 227.685 61.5419C228.285 62.1067 228.585 62.8596 228.585 63.8126C228.585 64.6715 228.285 65.3774 227.685 65.9422C227.085 66.5069 226.289 66.7893 225.319 66.7893H219.401V84.3198C219.401 86.214 219.908 87.7906 220.935 89.073C221.95 90.3555 223.208 90.9908 224.696 90.9908H227.062C227.892 90.9908 228.608 91.3202 229.185 91.9791L229.208 91.9909Z" fill="black"/>
<path d="M269.463 60.9421C269.786 61.4362 269.947 62.0009 269.947 62.6127C269.947 63.0363 269.832 63.4834 269.601 63.9658L254.844 95.6971C254.152 97.2619 253.079 98.0385 251.648 98.0385C250.864 98.0385 250.206 97.862 249.699 97.509C249.191 97.1561 248.729 96.556 248.303 95.6971L233.546 63.9658C233.361 63.5893 233.269 63.1657 233.269 62.6833C233.269 61.4009 233.915 60.4361 235.219 59.7773C235.634 59.542 236.119 59.4243 236.684 59.4243C237.249 59.4243 237.769 59.5773 238.288 59.8832C238.795 60.1891 239.188 60.6244 239.476 61.1891L251.591 87.8025L263.567 61.1891C263.844 60.6244 264.248 60.1891 264.79 59.8832C265.321 59.5773 265.897 59.4243 266.497 59.4243C267.097 59.4243 267.64 59.542 268.101 59.7773C268.701 60.0596 269.163 60.4479 269.497 60.9421H269.463Z" fill="black"/>
<path d="M267.905 97.7795C266.947 96.8148 266.474 95.6617 266.474 94.3323C266.474 93.0028 266.947 91.7909 267.905 90.8144C268.851 89.8496 269.982 89.3555 271.274 89.3555C272.566 89.3555 273.697 89.8496 274.655 90.8144C275.601 91.7909 276.085 92.9557 276.085 94.3323C276.085 95.7088 275.624 96.803 274.689 97.7795C273.755 98.7443 272.624 99.2384 271.274 99.2384C269.924 99.2384 268.851 98.7561 267.905 97.7795Z" fill="black"/>
<path d="M291.176 94.6618C289.388 92.3676 288.5 89.4262 288.5 85.826V45.3764C288.5 44.5764 288.754 43.9175 289.273 43.4234C289.78 42.9292 290.403 42.6821 291.153 42.6821C291.938 42.6821 292.584 42.9292 293.069 43.4234C293.553 43.9175 293.796 44.5646 293.796 45.3764V85.826C293.796 87.8614 294.199 89.5203 295.019 90.791C295.826 92.0617 296.865 92.7087 298.111 92.7087H299.853C300.545 92.7087 301.099 92.9558 301.526 93.45C301.941 93.9441 302.149 94.603 302.149 95.403C302.149 96.2031 301.86 96.862 301.284 97.3561C300.707 97.8502 299.945 98.0973 299.022 98.0973H298.122C295.295 98.0973 292.976 96.9561 291.2 94.65L291.176 94.6618Z" fill="black"/>
<path d="M310.606 50.7649C309.879 50.0119 309.521 49.0825 309.521 48C309.521 46.9176 309.891 45.9411 310.641 45.2352C311.379 44.5292 312.29 44.1763 313.352 44.1763C314.413 44.1763 315.256 44.5292 315.994 45.2352C316.732 45.9411 317.113 46.8706 317.113 48C317.113 49.1295 316.744 50.0119 315.994 50.7649C315.256 51.5179 314.344 51.9062 313.283 51.9062C312.221 51.9062 311.321 51.5297 310.606 50.7649ZM311.402 97.3207C310.894 96.8031 310.641 96.1442 310.641 95.3324V62.048C310.641 61.2479 310.894 60.5891 311.402 60.0596C311.91 59.5419 312.556 59.2831 313.352 59.2831C314.148 59.2831 314.783 59.5419 315.267 60.0596C315.752 60.5773 315.994 61.2479 315.994 62.048V95.3324C315.994 96.1324 315.752 96.8031 315.267 97.3207C314.783 97.8384 314.136 98.0973 313.352 98.0973C312.567 98.0973 311.91 97.8384 311.402 97.3207Z" fill="black"/>
<path d="M360.749 61.7655C360.749 62.0479 360.679 62.3774 360.541 62.7538L345.3 96.25C344.7 97.4854 343.811 98.0972 342.658 98.0972C341.504 98.0972 340.708 97.4854 340.154 96.25L324.705 62.8244C324.567 62.5421 324.497 62.2126 324.497 61.8361C324.497 60.8478 325.005 60.0831 326.032 59.5654C326.355 59.3772 326.724 59.283 327.151 59.283C327.612 59.283 328.039 59.4007 328.443 59.636C328.835 59.8713 329.124 60.2243 329.309 60.6949L342.681 90.2144L355.903 60.6949C356.087 60.2243 356.387 59.8595 356.814 59.5889C357.23 59.3301 357.691 59.2007 358.21 59.2007C358.626 59.2007 358.995 59.2948 359.33 59.4831C360.31 59.9537 360.795 60.7184 360.795 61.7538L360.749 61.7655Z" fill="black"/>
<path d="M391.647 61.3774C394.289 63.0128 396.343 65.2717 397.808 68.1543C399.273 71.0368 400 74.3311 400 78.0137C400 78.7667 399.769 79.3785 399.308 79.8256C398.846 80.2727 398.246 80.4962 397.496 80.4962H369.379C369.748 84.3788 371.237 87.5202 373.833 89.9321C376.428 92.344 379.682 93.5558 383.582 93.5558C385.255 93.5558 386.939 93.2617 388.624 92.6734C390.32 92.0852 391.67 91.3439 392.697 90.438C393.297 89.9674 393.92 89.7321 394.577 89.7321C395.085 89.7321 395.593 89.9203 396.112 90.2968C396.712 90.8616 397.012 91.5087 397.012 92.2146C397.012 92.8264 396.758 93.3794 396.25 93.85C394.716 95.1795 392.766 96.2737 390.401 97.1443C388.035 98.0149 385.762 98.462 383.582 98.462C379.867 98.462 376.555 97.6267 373.625 95.9442C370.706 94.2618 368.41 91.9205 366.771 88.9203C365.133 85.9201 364.302 82.5199 364.302 78.7314C364.302 74.9429 365.087 71.4839 366.633 68.4719C368.191 65.4718 370.348 63.1304 373.106 61.448C375.863 59.7655 379.013 58.9302 382.532 58.9302C386.051 58.9302 389.005 59.742 391.647 61.3774ZM373.752 67.1542C371.433 69.3779 370.014 72.3075 369.506 75.9548H394.981C394.612 72.3075 393.308 69.3779 391.081 67.1542C388.855 64.9305 386.005 63.8128 382.52 63.8128C379.036 63.8128 376.071 64.9305 373.752 67.1542Z" fill="black"/>
<path d="M18.7948 26.8456L45.8968 70.5072L86.221 10.2799L84.0866 8.77393L45.8968 59.2947L19.937 24.9985L18.7948 26.8456Z" fill="#E91D6D"/>
<path d="M86.5441 11.6211C89.4434 11.6211 91.7937 9.22435 91.7937 6.26782C91.7937 3.31129 89.4434 0.914551 86.5441 0.914551C83.6448 0.914551 81.2944 3.31129 81.2944 6.26782C81.2944 9.22435 83.6448 11.6211 86.5441 11.6211Z" fill="black"/>
<path d="M17.318 27.5635C20.2173 27.5635 22.5676 25.1667 22.5676 22.2102C22.5676 19.2537 20.2173 16.8569 17.318 16.8569C14.4187 16.8569 12.0684 19.2537 12.0684 22.2102C12.0684 25.1667 14.4187 27.5635 17.318 27.5635Z" fill="black"/>
<path d="M23.4446 101.45C36.3927 101.45 46.8892 90.7463 46.8892 77.5426C46.8892 64.3389 36.3927 53.6353 23.4446 53.6353C10.4965 53.6353 0 64.3389 0 77.5426C0 90.7463 10.4965 101.45 23.4446 101.45Z" fill="#E91D6D"/>
<path d="M23.4446 94.2734C32.5057 94.2734 39.8511 86.7829 39.8511 77.5429C39.8511 68.303 32.5057 60.8125 23.4446 60.8125C14.3834 60.8125 7.03796 68.303 7.03796 77.5429C7.03796 86.7829 14.3834 94.2734 23.4446 94.2734Z" fill="white"/>
<path d="M68.2454 102.086C81.1934 102.086 91.6899 91.382 91.6899 78.1784C91.6899 64.9747 81.1934 54.271 68.2454 54.271C55.2973 54.271 44.8008 64.9747 44.8008 78.1784C44.8008 91.382 55.2973 102.086 68.2454 102.086Z" fill="#E91D6D"/>
<path d="M68.2455 94.9086C77.3066 94.9086 84.6521 87.4182 84.6521 78.1782C84.6521 68.9382 77.3066 61.4478 68.2455 61.4478C59.1843 61.4478 51.8389 68.9382 51.8389 78.1782C51.8389 87.4182 59.1843 94.9086 68.2455 94.9086Z" fill="white"/>
</g>
<defs>
<clipPath id="clip0_167_32593">
<rect width="400" height="101.171" fill="white" transform="translate(0 0.914551)"/>
</clipPath>
</defs>
</svg>
